<?xml version="1.0" encoding="UTF-8"?>
<svg version="1.1" xmlns="http://www.w3.org/2000/svg" width="776" height="772">
<path d="M0 0 C2.57179921 1.35927132 5.1847164 2.62949885 7.79785156 3.90698242 C37.55966247 18.51517295 64.8033776 37.87424317 89.07275391 60.43994141 C91.35969054 62.53846565 93.68140009 64.54915498 96.07275391 66.52587891 C96.98025391 67.33025391 97.88775391 68.13462891 98.82275391 68.96337891 C98.82275391 69.62337891 98.82275391 70.28337891 98.82275391 70.96337891 C99.64066406 71.27855469 99.64066406 71.27855469 100.47509766 71.60009766 C103.68406623 73.46354197 105.93328819 76.04218782 108.38525391 78.77587891 C108.9126416 79.35772949 109.4400293 79.93958008 109.98339844 80.5390625 C111.60581348 82.33910359 113.21612181 84.14924636 114.82275391 85.96337891 C115.28633301 86.48367676 115.74991211 87.00397461 116.22753906 87.54003906 C128.71093179 101.63242273 139.7250458 117.08993892 149.82275391 132.96337891 C150.18643066 133.53378906 150.55010742 134.10419922 150.92480469 134.69189453 C186.69151895 191.31584557 204.32360717 256.28882775 205.82275391 322.96337891 C205.88462891 324.89890625 205.88462891 324.89890625 205.94775391 326.87353516 C206.67357753 366.38555875 199.13357729 405.80512113 186.69775391 443.15087891 C186.44413086 443.91432617 186.19050781 444.67777344 185.92919922 445.46435547 C183.27451529 453.40093316 180.47266022 461.14225977 176.88623047 468.71606445 C175.55776554 471.5233463 174.41675906 474.39415814 173.26025391 477.27587891 C160.54765428 507.0253128 141.95582002 534.41770486 121.30908203 559.16845703 C119.97689698 560.7772324 118.67142468 562.40804042 117.36962891 564.04150391 C111.12751995 571.733393 104.23940574 578.75854183 97.26025391 585.77587891 C96.7711554 586.27024445 96.28205688 586.76460999 95.77813721 587.2739563 C89.46135221 593.6432731 82.91439893 599.46741052 75.82275391 604.96337891 C74.5131458 606.03683077 73.20812764 607.11591719 71.90869141 608.20166016 C57.52853576 620.14757544 42.30458481 630.16625849 26.17138672 639.58935547 C24.07683109 640.81473583 21.99217918 642.05526596 19.90869141 643.29931641 C0.04595416 654.9918808 -21.33920457 663.73492758 -43.17724609 670.96337891 C-44.03447266 671.24906738 -44.89169922 671.53475586 -45.77490234 671.82910156 C-70.98599149 680.11460015 -97.54023134 685.48370786 -123.98974609 687.65087891 C-124.73915466 687.71375092 -125.48856323 687.77662292 -126.26068115 687.84140015 C-166.05357546 691.12643102 -205.44647782 687.59911716 -244.17724609 677.96337891 C-245.41345703 677.66947266 -246.64966797 677.37556641 -247.92333984 677.07275391 C-271.03304218 671.30188613 -293.79578643 663.08375217 -314.9375 652.12011719 C-317.34765987 650.87536708 -319.76801064 649.65183458 -322.18896484 648.42822266 C-351.95482118 633.25911092 -381.49246373 613.52822828 -404.79833984 589.34619141 C-406.77503906 587.36389248 -408.98209264 585.69639479 -411.17724609 583.96337891 C-461.06732612 535.26521206 -497.26072686 468.48060781 -510.17724609 399.96337891 C-510.40492676 398.75842773 -510.63260742 397.55347656 -510.8671875 396.31201172 C-517.64192247 359.6824329 -520.55014385 321.02576902 -515.17724609 283.96337891 C-514.99419922 282.67254395 -514.81115234 281.38170898 -514.62255859 280.05175781 C-511.57692372 258.92586468 -507.37460033 238.41261976 -501.17724609 217.96337891 C-500.85449707 216.88540039 -500.53174805 215.80742187 -500.19921875 214.69677734 C-495.93620471 200.74392597 -490.37220403 187.52149858 -484.17724609 174.33837891 C-483.68369629 173.28608093 -483.68369629 173.28608093 -483.18017578 172.21252441 C-476.74028545 158.56146575 -469.53005364 145.32825606 -461.42724609 132.58837891 C-460.93119873 131.8065625 -460.43515137 131.02474609 -459.92407227 130.21923828 C-449.57120963 114.08927457 -438.01240629 99.00563047 -424.95068359 84.98291016 C-422.85775111 82.7294229 -420.83614163 80.42347811 -418.82568359 78.09619141 C-410.37771669 68.4070921 -401.14982518 59.12207313 -391.02099609 51.19775391 C-388.93260885 49.55687822 -386.90930509 47.89451681 -384.89599609 46.16650391 C-372.46521067 35.60025238 -358.88299918 26.76094637 -345.17724609 17.96337891 C-344.39269043 17.45677734 -343.60813477 16.95017578 -342.79980469 16.42822266 C-333.12562888 10.24781952 -322.86149923 5.23097135 -312.55224609 0.21337891 C-311.90251831 -0.10368011 -311.25279053 -0.42073914 -310.58337402 -0.74740601 C-219.90488479 -44.82380287 -113.68886768 -45.25576887 0 0 Z M-312.26074219 16.9609375 C-314.29579959 18.02538918 -316.35209454 19.03714713 -318.41552734 20.04541016 C-328.48012219 25.04337045 -337.90105496 30.8613074 -347.23974609 37.08837891 C-347.81060944 37.46774597 -348.38147278 37.84711304 -348.96963501 38.23797607 C-356.33278787 43.14851412 -363.35065288 48.33375353 -370.17724609 53.96337891 C-371.15435547 54.74326172 -372.13146484 55.52314453 -373.13818359 56.32666016 C-383.87386961 64.99511861 -393.72260334 74.4210866 -403.48974609 84.15087891 C-404.33786865 84.99432861 -405.18599121 85.83777832 -406.05981445 86.70678711 C-410.9711127 91.63065241 -415.67937723 96.65940819 -420.17724609 101.96337891 C-420.89009766 102.79482422 -421.60294922 103.62626953 -422.33740234 104.48291016 C-456.5431447 145.71241892 -480.26524736 194.06993697 -493.17724609 245.96337891 C-493.43376953 246.99092285 -493.69029297 248.0184668 -493.95458984 249.07714844 C-497.58270963 263.90095949 -499.69368541 278.78383243 -501.17724609 293.96337891 C-501.32081543 295.31157715 -501.32081543 295.31157715 -501.46728516 296.68701172 C-506.46067498 348.07060382 -498.84887292 401.9019925 -480.17724609 449.96337891 C-479.68562988 451.24220947 -479.68562988 451.24220947 -479.18408203 452.546875 C-466.53423985 485.10043532 -449.53824517 516.01837502 -427.17724609 542.96337891 C-426.72220703 543.51171387 -426.26716797 544.06004883 -425.79833984 544.625 C-413.66625728 559.17136699 -400.8846845 573.75260806 -386.43115234 586.04541016 C-384.67121846 587.54303154 -382.93340296 589.06665633 -381.20458984 590.60009766 C-372.65090907 598.14783334 -363.67310591 604.93371779 -354.32324219 611.46435547 C-352.97862229 612.40360076 -351.63725605 613.34754044 -350.30078125 614.29833984 C-338.56149643 622.64121022 -325.9113034 629.27889939 -313.17724609 635.96337891 C-311.77099043 636.71467038 -310.36473969 637.46597109 -308.95849609 638.21728516 C-230.16047212 679.61221504 -135.21661312 683.33968909 -51.07568359 657.85009766 C-42.75852641 655.24638282 -34.6434341 652.16437181 -26.56005859 648.91455078 C-24.33651973 648.02695781 -22.10366183 647.17063959 -19.86474609 646.32275391 C-7.71650562 641.63606504 3.51253298 635.37641448 14.82275391 628.96337891 C15.46680176 628.60179687 16.11084961 628.24021484 16.77441406 627.86767578 C24.37441107 623.59747268 31.64652355 618.90940233 38.82275391 613.96337891 C39.36125977 613.59374023 39.89976562 613.22410156 40.45458984 612.84326172 C54.12516845 603.41830355 66.90359681 592.9956918 78.98681641 581.61181641 C81.34384523 579.4106242 83.73748135 577.29659819 86.19775391 575.21337891 C89.49721174 572.36353273 92.30083654 569.24362785 95.11572266 565.92041016 C96.73536197 564.06356966 98.42398681 562.35940399 100.19775391 560.65087891 C104.33085726 556.5727614 107.91813798 552.0954741 111.53662109 547.56152344 C112.89043483 545.87927881 114.26506579 544.21569866 115.64306641 542.55322266 C158.7218833 490.21633247 183.68265588 423.07636266 189.82275391 355.96337891 C190.01998047 354.03171875 190.01998047 354.03171875 190.22119141 352.06103516 C190.54067914 348.36102183 190.72277052 344.67439022 190.82275391 340.96337891 C190.86360107 339.45807617 190.86360107 339.45807617 190.90527344 337.92236328 C191.52008648 310.65405127 189.3844377 283.70313682 183.82275391 256.96337891 C183.52377197 255.51632568 183.52377197 255.51632568 183.21875 254.04003906 C177.71967132 228.0771064 169.15348528 202.95266173 157.82275391 178.96337891 C157.41025391 178.09003906 156.99775391 177.21669922 156.57275391 176.31689453 C142.42375355 146.67031722 124.16708078 119.08466579 101.82275391 94.96337891 C100.94748047 93.99658203 100.07220703 93.02978516 99.17041016 92.03369141 C90.33998795 82.15393659 90.33998795 82.15393659 80.82275391 72.96337891 C80.16275391 72.96337891 79.50275391 72.96337891 78.82275391 72.96337891 C78.82275391 72.30337891 78.82275391 71.64337891 78.82275391 70.96337891 C77.22941151 69.52788165 75.57024309 68.16510564 73.88525391 66.83837891 C70.42322875 64.07663696 67.05640123 61.30048236 63.82275391 58.27587891 C50.74848948 46.57417961 35.77965006 37.04333699 20.82275391 27.96337891 C19.73478516 27.29693359 18.64681641 26.63048828 17.52587891 25.94384766 C-12.33240673 8.06922531 -45.50240765 -3.73072775 -79.17724609 -12.03662109 C-79.96437988 -12.23094727 -80.75151367 -12.42527344 -81.5625 -12.62548828 C-95.27079522 -15.92931716 -109.16206739 -17.61934281 -123.17724609 -19.03662109 C-124.0832959 -19.13450928 -124.9893457 -19.23239746 -125.92285156 -19.33325195 C-135.41124322 -20.25896884 -144.90317443 -20.23609492 -154.42724609 -20.22412109 C-155.3136377 -20.22351685 -156.2000293 -20.2229126 -157.11328125 -20.22229004 C-210.71948421 -20.12323405 -264.71217729 -8.33565078 -312.26074219 16.9609375 Z " fill="#0714BF" transform="translate(545.17724609375,61.03662109375)"/>
<path d="M0 0 C1.35230713 0.26804443 1.35230713 0.26804443 2.73193359 0.54150391 C57.09015209 11.76169427 110.95584388 40.03541251 151.55859375 77.7421875 C153.64688422 79.67343853 155.77091534 81.5331806 157.9375 83.375 C166.23180011 90.59411306 173.94131244 98.57663285 181 107 C181.74507812 107.86753906 182.49015625 108.73507813 183.2578125 109.62890625 C209.90518421 140.99595351 230.9590338 176.91777815 244 216 C244.28536621 216.83595703 244.57073242 217.67191406 244.86474609 218.53320312 C251.77238101 238.85375789 257.12916861 259.71205538 260 281 C260.14646973 282.05936768 260.14646973 282.05936768 260.29589844 283.14013672 C265.20453136 319.83919196 263.21710094 356.78921732 256 393 C255.82130371 393.92425781 255.64260742 394.84851563 255.45849609 395.80078125 C249.06707484 428.10717901 236.39184564 460.51580921 220 489 C219.67 489.58007812 219.34 490.16015625 219 490.7578125 C206.23902692 513.0895154 190.99860318 534.13640312 173.15625 552.66796875 C170.95567966 554.95514109 168.86429009 557.30176362 166.81640625 559.7265625 C164.8187918 562.08330233 162.82292719 564.21163571 160.4375 566.1875 C157.35959275 568.79728448 154.39555766 571.49217743 151.4621582 574.26098633 C144.6494702 580.66836124 137.55328348 586.48427899 130 592 C129.37673828 592.45842285 128.75347656 592.9168457 128.11132812 593.38916016 C75.57557612 631.8537655 9.73591813 657.90281931 -56.03515625 658.203125 C-57.06354111 658.21013931 -58.09192596 658.21715363 -59.151474 658.22438049 C-62.45519427 658.24180595 -65.75873545 658.24823351 -69.0625 658.25 C-70.18970459 658.25067474 -71.31690918 658.25134949 -72.47827148 658.25204468 C-88.54523161 658.23673109 -104.15413456 657.87046687 -120 655 C-121.04865234 654.82307617 -122.09730469 654.64615234 -123.17773438 654.46386719 C-138.09086487 651.93762302 -152.57305566 648.52838808 -167 644 C-167.84836426 643.73993164 -168.69672852 643.47986328 -169.57080078 643.21191406 C-200.91103041 633.55512824 -231.11364482 618.7985898 -258 600 C-258.54430664 599.62552734 -259.08861328 599.25105469 -259.64941406 598.86523438 C-267.43577335 593.50470984 -274.78973463 587.81866064 -281.93359375 581.62890625 C-284.63866872 579.28731259 -287.43251775 577.08054041 -290.25 574.875 C-295.38756496 570.69695085 -300.06678597 566.11566964 -304.75 561.4375 C-305.81395996 560.37474854 -305.81395996 560.37474854 -306.89941406 559.29052734 C-311.45903533 554.68285387 -315.78160374 549.92038597 -320 545 C-320.90085533 543.96728535 -321.80188327 542.93472122 -322.703125 541.90234375 C-349.16649531 511.09605837 -369.64008486 475.33419474 -383 437 C-383.33628418 436.03900391 -383.67256836 435.07800781 -384.01904297 434.08789062 C-389.58278345 417.97943766 -393.72462924 401.71921768 -397 385 C-397.25305908 383.71367676 -397.25305908 383.71367676 -397.51123047 382.40136719 C-413.85415691 296.72854505 -390.84738922 207.68428282 -343 136 C-339.85363602 131.50952874 -336.47958977 127.23764325 -333 123 C-331.6873022 121.33348912 -330.37479586 119.66682741 -329.0625 118 C-327.71003125 116.33195521 -326.35580321 114.66533564 -325 113 C-324.29617188 112.10925781 -323.59234375 111.21851563 -322.8671875 110.30078125 C-316.53084554 102.50769187 -309.57863893 95.36300333 -302.5 88.25 C-302.01562469 87.7604483 -301.53124939 87.27089661 -301.03219604 86.76651001 C-294.36922584 80.04751652 -287.41584285 73.88013288 -280 68 C-278.93506053 67.11882534 -277.87207084 66.23527919 -276.8125 65.34765625 C-268.99447216 58.99550863 -260.74764618 53.33695323 -252.375 47.75 C-251.51890137 47.17706711 -251.51890137 47.17706711 -250.64550781 46.59255981 C-239.48276966 39.13877927 -228.14158616 32.30554474 -216 26.5625 C-215.00726074 26.09223389 -214.01452148 25.62196777 -212.99169922 25.13745117 C-146.16016729 -6.16818191 -72.23109126 -14.37245771 0 0 Z M-167.55957031 15.23535156 C-169.12767433 15.72667827 -170.6972322 16.21340167 -172.26855469 16.69433594 C-206.62775732 27.23932062 -238.81061609 44.80515096 -267 67 C-268.34384766 68.04220703 -268.34384766 68.04220703 -269.71484375 69.10546875 C-272.17233897 71.03721135 -274.59010908 73.00922054 -277 75 C-277.99515625 75.80953125 -278.9903125 76.6190625 -280.015625 77.453125 C-287.53887618 83.67172099 -294.5334786 90.35230676 -301.4375 97.25 C-302.27780762 98.08950195 -303.11811523 98.92900391 -303.98388672 99.79394531 C-311.24748426 107.12269372 -317.949138 114.72059676 -324.1875 122.9375 C-324.74211914 123.66694824 -325.29673828 124.39639648 -325.86816406 125.14794922 C-379.82103304 196.52915562 -402.87215471 282.086446 -392 371 C-391.83975342 372.34868164 -391.83975342 372.34868164 -391.67626953 373.72460938 C-386.20827902 418.15090994 -369.00350936 463.83882095 -344 501 C-343.37609375 501.9590625 -342.7521875 502.918125 -342.109375 503.90625 C-337.35837023 511.16369035 -332.29201704 518.12883755 -327 525 C-326.08154297 526.21236328 -326.08154297 526.21236328 -325.14453125 527.44921875 C-319.91634518 534.1934673 -314.0975562 540.34034589 -308.2421875 546.53515625 C-305.93373706 548.98357196 -303.71241251 551.47257949 -301.5625 554.0625 C-292.56291449 564.46403099 -281.74515382 573.37151268 -270.79785156 581.63476562 C-268.95264967 583.03595642 -267.128128 584.46126138 -265.3046875 585.890625 C-209.88780447 628.924203 -140.2933249 651.18823605 -70.4375 651.25 C-69.53870117 651.25133942 -68.63990234 651.25267883 -67.71386719 651.25405884 C-51.97140165 651.24899796 -36.59211955 650.30823182 -21 648 C-20.18289551 647.88253418 -19.36579102 647.76506836 -18.52392578 647.64404297 C-13.64506089 646.92307498 -8.82549815 646.01457438 -4 645 C-2.90534424 644.78102051 -2.90534424 644.78102051 -1.78857422 644.55761719 C24.49257617 639.22296888 50.04343838 629.94809796 74 618 C74.87978516 617.57283691 75.75957031 617.14567383 76.66601562 616.70556641 C96.01199095 607.29469014 114.1533728 595.37201034 131 582 C131.86625 581.32453125 132.7325 580.6490625 133.625 579.953125 C144.74517601 571.0957755 154.92999944 561.14194737 165 551.125 C165.59844727 550.53122559 166.19689453 549.93745117 166.81347656 549.32568359 C173.51777473 542.59705381 179.57963354 535.44312596 185.3125 527.875 C185.87517578 527.1327417 186.43785156 526.3904834 187.01757812 525.62573242 C188.68312572 523.42067785 190.34188659 521.21064703 192 519 C192.44778809 518.40944824 192.89557617 517.81889648 193.35693359 517.21044922 C223.78116012 476.95813856 241.9689176 428.93360677 251.25 379.6875 C251.47659302 378.51006226 251.47659302 378.51006226 251.70776367 377.30883789 C254.68880962 360.62809514 255.37664416 343.84579287 255.3125 326.9375 C255.31026428 325.46855789 255.31026428 325.46855789 255.3079834 323.96994019 C255.26482201 308.13051575 254.50113113 292.6661031 252 277 C251.7831958 275.57953369 251.7831958 275.57953369 251.56201172 274.13037109 C246.67060612 242.65311976 237.09932717 211.5749601 223 183 C222.43659912 181.84661133 222.43659912 181.84661133 221.86181641 180.66992188 C210.00259979 156.62053375 194.68416981 131.42629805 176 112 C175.34 112 174.68 112 174 112 C173.60361328 111.11054688 173.60361328 111.11054688 173.19921875 110.203125 C171.95629575 107.91970946 170.69598354 106.52573277 168.8125 104.75 C166.32784879 102.34681276 164.02925443 99.90141216 161.8125 97.25 C157.01183984 91.68166671 151.47466905 86.88599496 146 82 C145.3090625 81.3709375 144.618125 80.741875 143.90625 80.09375 C100.1382804 40.77676036 45.1469059 16.79086541 -12 5 C-12.88026855 4.81711426 -13.76053711 4.63422852 -14.66748047 4.44580078 C-64.89149422 -5.62394251 -119.03129762 0.02443618 -167.55957031 15.23535156 Z " fill="#0C18C0" transform="translate(459,62)"/>
<path d="M0 0 C0.80920898 0.12858398 1.61841797 0.25716797 2.45214844 0.38964844 C56.07461367 9.25528951 105.66805351 40.43220333 139 83 C139.77730469 83.93714844 140.55460937 84.87429687 141.35546875 85.83984375 C163.12318273 112.72937278 176.05705867 146.41953625 183 180 C183.24967529 181.11169556 183.24967529 181.11169556 183.50439453 182.24584961 C184.97267916 189.02867143 185.6323921 195.7712039 186.125 202.6875 C186.2077417 203.84451416 186.2904834 205.00152832 186.37573242 206.19360352 C186.59892596 209.46167988 186.8056685 212.7300915 187 216 C187.04431152 216.73412109 187.08862305 217.46824219 187.13427734 218.22460938 C189.17259551 257.50103449 176.9552751 300.38375386 157 334 C156.65775391 334.5789502 156.31550781 335.15790039 155.96289062 335.75439453 C135.78228954 369.64634205 108.07603931 397.14843812 74 417 C73.34483398 417.3825293 72.68966797 417.76505859 72.01464844 418.15917969 C52.34302686 429.47590951 30.96313992 436.59326762 9 442 C8.26749023 442.18288574 7.53498047 442.36577148 6.78027344 442.55419922 C-45.95680626 455.18450822 -104.75487937 442.82960886 -151 416 C-151.63711914 415.63326172 -152.27423828 415.26652344 -152.93066406 414.88867188 C-168.47618016 405.84150298 -182.02327878 394.39250322 -195 382 C-195.4945166 381.53271484 -195.9890332 381.06542969 -196.49853516 380.58398438 C-204.50177385 372.9892577 -211.49018149 364.90425965 -218 356 C-218.5170752 355.29488281 -219.03415039 354.58976562 -219.56689453 353.86328125 C-228.28235089 341.85496988 -235.59501141 329.38103728 -242 316 C-242.33725098 315.29762207 -242.67450195 314.59524414 -243.02197266 313.87158203 C-260.75707125 276.07683668 -267.03863003 229.15764684 -260 188 C-259.8546582 187.12843262 -259.70931641 186.25686523 -259.55957031 185.35888672 C-251.84777862 140.7274695 -231.63011456 100.66698093 -201.125 67.375 C-200.55289795 66.7459375 -199.9807959 66.116875 -199.39135742 65.46875 C-197.96968199 63.9389244 -196.48934397 62.46402935 -195 61 C-194.34 61 -193.68 61 -193 61 C-192.67 60.01 -192.34 59.02 -192 58 C-189.57063062 55.41969347 -186.73214232 53.25093531 -184 51 C-183.47035645 50.55946289 -182.94071289 50.11892578 -182.39501953 49.66503906 C-162.06215747 32.80587451 -139.18754559 18.43346256 -114 10 C-112.74485596 9.57944336 -112.74485596 9.57944336 -111.46435547 9.15039062 C-74.97082942 -2.87100619 -38.02995898 -6.21761816 0 0 Z M-162 43 C-163.051875 43.76828125 -164.10375 44.5365625 -165.1875 45.328125 C-171.90854191 50.329923 -178.14814678 55.71529258 -184.24609375 61.45703125 C-186.18511768 63.24753419 -188.11503459 64.94148533 -190.15234375 66.609375 C-192.3838724 68.48275707 -194.2570427 70.22759423 -196.125 72.4375 C-196.98931641 73.45263672 -196.98931641 73.45263672 -197.87109375 74.48828125 C-198.57363281 75.31714844 -199.27617187 76.14601563 -200 77 C-200.98973391 78.14032338 -201.98071845 79.27956196 -202.97265625 80.41796875 C-204.04445215 81.65348857 -205.1160657 82.88916659 -206.1875 84.125 C-206.69877441 84.71079834 -207.21004883 85.29659668 -207.73681641 85.90014648 C-210.7923899 89.44467167 -213.47016848 93.05087323 -216 97 C-216.87601888 98.31138714 -217.7523453 99.62256888 -218.62890625 100.93359375 C-250.5826192 149.60289856 -262.26538584 208.45304339 -250.9375 265.625 C-240.38311059 315.18841268 -212.56837328 363.84954899 -171 394 C-170.1020874 394.66394775 -170.1020874 394.66394775 -169.18603516 395.34130859 C-159.20101325 402.70699029 -149.01716666 409.29075147 -138 415 C-137.30277832 415.36689941 -136.60555664 415.73379883 -135.88720703 416.11181641 C-109.37312822 429.91014256 -78.75600775 438.82270607 -48.7421875 439.2734375 C-47.96920822 439.28601089 -47.19622894 439.29858429 -46.39982605 439.3115387 C12.15734982 440.07668881 67.17700476 421.8219207 110 381 C111.43042553 379.76260768 112.86720073 378.53248646 114.3125 377.3125 C117.47738276 374.55536287 120.24539814 371.62643247 122.953125 368.421875 C124.5663699 366.51307379 126.20158256 364.63523446 127.859375 362.765625 C133.95335205 355.85062322 139.26146896 348.9329139 144 341 C145.14322012 339.24829175 146.28911474 337.49832644 147.4375 335.75 C160.54860363 314.94704891 169.63041094 291.9762347 175 268 C175.20882813 267.10603516 175.41765625 266.21207031 175.6328125 265.29101562 C182.02262543 236.88061319 181.5434496 204.34605286 175 176 C174.81276367 175.1558252 174.62552734 174.31165039 174.43261719 173.44189453 C167.20296111 141.47033254 152.66432107 111.41357823 132 86 C131.48308594 85.30003906 130.96617187 84.60007812 130.43359375 83.87890625 C119.75691503 69.71499018 106.31558846 57.39603944 92 47 C91.40703125 46.56220215 90.8140625 46.1244043 90.203125 45.67333984 C17.73344116 -7.80789318 -88.5270502 -10.85233252 -162 43 Z " fill="#0C19C0" transform="translate(427,166)"/>
<path d="M0 0 C1.65612305 -0.0309375 1.65612305 -0.0309375 3.34570312 -0.0625 C11.5248295 -0.10114915 18.73755315 0.80546482 25.9375 4.875 C32.82584679 12.57374053 32.65903523 21.41980222 32.59375 31.28515625 C32.59645065 32.73286702 32.60033781 34.18057601 32.60534668 35.62828064 C32.61121307 38.64827914 32.6027712 41.66780141 32.58398438 44.68774414 C32.56117508 48.53996896 32.57434731 52.39107996 32.59827423 56.2432642 C32.61279297 59.22806552 32.60809905 62.21260675 32.59776306 65.19741631 C32.59511355 66.61705091 32.59830237 68.0367099 32.60768127 69.45631599 C32.68881807 85.18213013 32.68881807 85.18213013 26.68615723 91.75770569 C21.43399125 96.54949966 16.03895648 97.50642882 9.1328125 97.4453125 C7.84375 97.43886719 6.5546875 97.43242187 5.2265625 97.42578125 C3.88020558 97.40907463 2.53385141 97.39214479 1.1875 97.375 C-0.18228517 97.36495664 -1.55207742 97.35583317 -2.921875 97.34765625 C-6.26059756 97.32414412 -9.59895761 97.2912793 -12.9375 97.25 C-12.96062143 84.750429 -12.97841406 72.25086305 -12.98931217 59.75127506 C-12.99454144 53.94786387 -13.00163987 48.14446725 -13.01293945 42.34106445 C-13.02376678 36.74549147 -13.0297765 31.14993255 -13.03237724 25.5543499 C-13.03423177 23.41441056 -13.03785291 21.27447204 -13.04323006 19.13453865 C-13.05043844 16.14835034 -13.05149103 13.16222093 -13.05102539 10.17602539 C-13.05462067 9.28194977 -13.05821594 8.38787415 -13.06192017 7.46670532 C-13.04540096 -2.25656979 -8.54553958 0.03868948 0 0 Z M2.0625 14.25 C2.0625 37.35 2.0625 60.45 2.0625 84.25 C11.31714401 84.99535599 11.31714401 84.99535599 16.0625 82.25 C18.01312601 78.66236432 18.31828756 75.56938918 18.3371582 71.52929688 C18.34669022 70.40463013 18.35622223 69.27996338 18.36604309 68.12121582 C18.36467598 66.31324524 18.36467598 66.31324524 18.36328125 64.46875 C18.36756638 63.22250854 18.3718515 61.97626709 18.37626648 60.69226074 C18.38347198 57.38647328 18.38039014 54.08086832 18.37469482 50.77508545 C18.37499973 48.75179884 18.38504458 46.72880439 18.39868164 44.70556641 C18.42315548 40.81398776 18.42733793 36.92289594 18.42578125 33.03125 C18.434991 31.82593628 18.44420074 30.62062256 18.45368958 29.37878418 C18.44434639 27.69178406 18.44434639 27.69178406 18.43481445 25.97070312 C18.43544388 24.98428833 18.4360733 23.99787354 18.4367218 22.98156738 C17.95552896 19.46918336 16.58595401 16.77345401 14.0625 14.25 C10.1025 14.25 6.1425 14.25 2.0625 14.25 Z " fill="#0714BF" transform="translate(480.9375,332.75)"/>
<path d="M0 0 C2.21969722 4.72202291 2.91160786 9.5477114 3.734375 14.65234375 C3.89307068 15.6086821 4.05176636 16.56502045 4.215271 17.55033875 C4.73266649 20.67846584 5.2416316 23.8078942 5.75 26.9375 C6.10451147 29.09754377 6.45933174 31.25753689 6.81445312 33.41748047 C7.71239792 38.89170182 8.60207375 44.36722968 9.48852539 49.84332275 C9.97687374 52.85727125 10.4675393 55.87083244 10.95898438 58.88427734 C11.6805947 63.31306081 12.39642487 67.74273372 13.10656738 72.17337036 C13.3672053 73.79750526 13.62915148 75.42143079 13.89245605 77.0451355 C14.25597665 79.29238291 14.61328981 81.54052795 14.96875 83.7890625 C15.16919922 85.04412598 15.36964844 86.29918945 15.57617188 87.59228516 C16 91 16 91 16 97 C11.38 97 6.76 97 2 97 C1.49666458 94.39643759 0.99720622 91.79223349 0.5 89.1875 C0.35691406 88.44951172 0.21382813 87.71152344 0.06640625 86.95117188 C-0.50926281 83.92205609 -1 81.090804 -1 78 C-9.415 78.495 -9.415 78.495 -18 79 C-18.20496094 80.21558594 -18.40992188 81.43117188 -18.62109375 82.68359375 C-18.89301961 84.26826514 -19.16516643 85.85289863 -19.4375 87.4375 C-19.57220703 88.23994141 -19.70691406 89.04238281 -19.84570312 89.86914062 C-20.88671875 95.88671875 -20.88671875 95.88671875 -22 97 C-24.18639453 97.07258946 -26.37500389 97.08373783 -28.5625 97.0625 C-29.76003906 97.05347656 -30.95757812 97.04445313 -32.19140625 97.03515625 C-33.58166016 97.01775391 -33.58166016 97.01775391 -35 97 C-31.68568508 75.13464535 -28.2814448 53.28362301 -24.7963562 31.44482422 C-24.38960591 28.89296616 -23.98427719 26.34088111 -23.58035278 23.78857422 C-23.00941802 20.18391422 -22.43317359 16.58014283 -21.85546875 12.9765625 C-21.68278473 11.88042633 -21.51010071 10.78429016 -21.33218384 9.65493774 C-21.17124237 8.65844208 -21.0103009 7.66194641 -20.84448242 6.63525391 C-20.70491623 5.76027252 -20.56535004 4.88529114 -20.42155457 3.98379517 C-20 2 -20 2 -19 1 C-12.69502258 -0.01329994 -6.36939251 -0.10273214 0 0 Z M-10 18 C-11.4519032 23.48917569 -12.54131565 28.8948337 -13.32421875 34.515625 C-13.43474075 35.29387634 -13.54526276 36.07212769 -13.65913391 36.8739624 C-13.88901014 38.50387666 -14.11662048 40.13411198 -14.34204102 41.76464844 C-14.68867913 44.25848307 -15.04812244 46.75026267 -15.40820312 49.2421875 C-15.6309879 50.83322437 -15.85301984 52.42436688 -16.07421875 54.015625 C-16.18247482 54.75733948 -16.2907309 55.49905396 -16.40226746 56.26324463 C-16.87117444 59.73849206 -17.23974795 62.66434557 -16 66 C-14.02090602 66.02686553 -12.04171029 66.04633375 -10.0625 66.0625 C-8.96035156 66.07410156 -7.85820312 66.08570313 -6.72265625 66.09765625 C-4.08552366 66.31262571 -4.08552366 66.31262571 -3 65 C-3.13822658 54.67871887 -5.01313472 44.36888925 -6.5625 34.1875 C-6.79925013 32.60878719 -7.03558084 31.03001141 -7.27148438 29.45117188 C-7.84283796 25.63337368 -8.41981038 21.81646494 -9 18 C-9.33 18 -9.66 18 -10 18 Z " fill="#0814BF" transform="translate(373,333)"/>
<path d="M0 0 C31.69811321 0 31.69811321 0 39.5625 7.3125 C44.73649412 13.65332959 44.33739655 21.69467192 44.3125 29.4375 C44.32861328 30.43587891 44.34472656 31.43425781 44.36132812 32.46289062 C44.3660016 39.57124922 43.77921062 45.46282284 39.23828125 51.2421875 C31.3798043 57.90515578 25.54692939 57.94530706 15 59 C14.67 71.54 14.34 84.08 14 97 C9.38 97 4.76 97 0 97 C0 64.99 0 32.98 0 0 Z M14 14 C13.97534378 18.25414623 13.95716101 22.50825498 13.94506836 26.76245117 C13.94002899 28.21070073 13.93319747 29.65894517 13.92456055 31.10717773 C13.91247753 33.18474588 13.90676789 35.26224697 13.90234375 37.33984375 C13.89710693 38.59144287 13.89187012 39.84304199 13.88647461 41.13256836 C13.67112965 43.89732294 13.67112965 43.89732294 15 45 C19.52697544 45.26117166 22.94082398 45.08757624 27 43 C30.0338416 39.9661584 29.29324388 36.99122117 29.32226562 32.84375 C29.31904297 31.7815625 29.31582031 30.719375 29.3125 29.625 C29.32861328 28.57054687 29.34472656 27.51609375 29.36132812 26.4296875 C29.36197266 25.41390625 29.36261719 24.398125 29.36328125 23.3515625 C29.36626221 22.42166504 29.36924316 21.49176758 29.37231445 20.53369141 C28.91692627 17.43466282 28.33249254 16.10367304 26 14 C23.03164137 13.51592066 23.03164137 13.51592066 19.8125 13.75 C18.72582031 13.78609375 17.63914062 13.8221875 16.51953125 13.859375 C15.68808594 13.90578125 14.85664063 13.9521875 14 14 Z " fill="#0714BF" transform="translate(267,333)"/>
<path d="M0 0 C2.81840951 1.40920475 2.9040292 2.97105016 3.9453125 5.91015625 C4.42508545 7.24639038 4.42508545 7.24639038 4.91455078 8.60961914 C5.31399902 9.74906982 5.71344727 10.88852051 6.125 12.0625 C7.40375 15.671875 8.6825 19.28125 10 23 C17.92 23.33 25.84 23.66 34 24 C32.87676322 27.36971035 32.24211769 27.81212179 29.4375 29.77734375 C28.72335938 30.29103516 28.00921875 30.80472656 27.2734375 31.33398438 C25.75965012 32.40169867 24.24402507 33.46681234 22.7265625 34.52929688 C22.01242188 35.04427734 21.29828125 35.55925781 20.5625 36.08984375 C19.90378906 36.55253662 19.24507812 37.01522949 18.56640625 37.49194336 C16.64513944 39.34164178 16.24946171 40.3558893 16 43 C16.41788322 45.31240722 16.41788322 45.31240722 17.25 47.6953125 C17.5284375 48.57574219 17.806875 49.45617187 18.09375 50.36328125 C18.3928125 51.27464844 18.691875 52.18601562 19 53.125 C19.58991625 54.93797538 20.17358367 56.75299989 20.75 58.5703125 C21.14445312 59.77324951 21.14445312 59.77324951 21.546875 61.00048828 C22 63 22 63 21 65 C20.53102295 64.67725098 20.0620459 64.35450195 19.57885742 64.02197266 C17.44855895 62.55609116 15.31803193 61.09054217 13.1875 59.625 C12.44951172 59.11710937 11.71152344 58.60921875 10.95117188 58.0859375 C10.23896484 57.59609375 9.52675781 57.10625 8.79296875 56.6015625 C8.1383667 56.15119629 7.48376465 55.70083008 6.80932617 55.23681641 C3.73390031 52.76484005 3.73390031 52.76484005 0.05126953 52.21850586 C-2.18434659 53.0702325 -3.87562923 54.11220999 -5.8203125 55.50390625 C-6.52027344 55.99697266 -7.22023438 56.49003906 -7.94140625 56.99804688 C-8.66199219 57.51431641 -9.38257812 58.03058594 -10.125 58.5625 C-11.56211731 59.58883068 -13.00208887 60.61118016 -14.4453125 61.62890625 C-15.07969238 62.08338135 -15.71407227 62.53785645 -16.36767578 63.00610352 C-18 64 -18 64 -20 64 C-18.48565898 55.53164559 -16.27628663 47.28745132 -14 39 C-14.58426758 38.72220703 -15.16853516 38.44441406 -15.77050781 38.15820312 C-19.35053239 36.29840937 -22.49990385 33.87766958 -25.75 31.5 C-26.44738281 31.00113281 -27.14476563 30.50226563 -27.86328125 29.98828125 C-28.52199219 29.50746094 -29.18070312 29.02664063 -29.859375 28.53125 C-30.46233398 28.09361328 -31.06529297 27.65597656 -31.68652344 27.20507812 C-32.1199707 26.80740234 -32.55341797 26.40972656 -33 26 C-33 25.34 -33 24.68 -33 24 C-24.75 24 -16.5 24 -8 24 C-7.01 20.7 -6.02 17.4 -5 14 C-4.12490101 11.45112013 -3.23147526 8.90839126 -2.3125 6.375 C-1.87550781 5.16585938 -1.43851563 3.95671875 -0.98828125 2.7109375 C-0.66214844 1.81632812 -0.33601563 0.92171875 0 0 Z " fill="#0915BF" transform="translate(117,336)"/>
<path d="M0 0 C2 1 2 1 2.85375977 3.02539062 C3.13018311 3.89357422 3.40660645 4.76175781 3.69140625 5.65625 C3.99626953 6.59597656 4.30113281 7.53570312 4.61523438 8.50390625 C5.08413086 9.98697266 5.08413086 9.98697266 5.5625 11.5 C6.18624797 13.44873603 6.8124204 15.39669827 7.44140625 17.34375 C7.71670166 18.21193359 7.99199707 19.08011719 8.27563477 19.97460938 C8.82587271 21.96843474 8.82587271 21.96843474 10 23 C11.77869726 23.15764405 13.56318476 23.25100677 15.34765625 23.31640625 C16.96704102 23.37924805 16.96704102 23.37924805 18.61914062 23.44335938 C19.75544922 23.48267578 20.89175781 23.52199219 22.0625 23.5625 C23.20267578 23.60568359 24.34285156 23.64886719 25.51757812 23.69335938 C28.34492195 23.79982839 31.17235738 23.90184207 34 24 C32.87533858 27.37398427 32.25568276 27.79469085 29.4375 29.7421875 C28.72335937 30.25136719 28.00921875 30.76054687 27.2734375 31.28515625 C25.76147246 32.34249262 24.2458468 33.39461415 22.7265625 34.44140625 C18.65426734 37.30232342 18.65426734 37.30232342 15.81640625 41.27734375 C16.11066136 45.6410844 17.51976865 49.57080524 18.9375 53.6875 C19.51138643 55.39897947 20.08311033 57.11118608 20.65234375 58.82421875 C20.91007568 59.57791748 21.16780762 60.33161621 21.43334961 61.1081543 C22 63 22 63 22 65 C19.20244021 63.6766521 16.74548553 62.19010298 14.25 60.36328125 C13.5590625 59.86892578 12.868125 59.37457031 12.15625 58.86523438 C10.71317226 57.82606155 9.27567474 56.77909743 7.84375 55.72460938 C7.1528125 55.23412109 6.461875 54.74363281 5.75 54.23828125 C5.12609375 53.78493408 4.5021875 53.33158691 3.859375 52.86450195 C2.03675449 51.82397164 2.03675449 51.82397164 0.00439453 52.20581055 C-2.18158932 53.07195007 -3.89931982 54.11321277 -5.8203125 55.46875 C-6.87025391 56.20158203 -6.87025391 56.20158203 -7.94140625 56.94921875 C-9.02228516 57.71685547 -9.02228516 57.71685547 -10.125 58.5 C-11.56440853 59.51140741 -13.00448184 60.52186956 -14.4453125 61.53125 C-15.07969238 61.98048828 -15.71407227 62.42972656 -16.36767578 62.89257812 C-18 64 -18 64 -20 65 C-19.47259765 58.40747068 -17.73647669 52.47107811 -15.7421875 46.171875 C-14.75655643 42.41894301 -14.75655643 42.41894301 -16 39 C-18.07186451 37.17086438 -20.08516578 35.55056398 -22.3125 33.9375 C-23.18551758 33.2868457 -23.18551758 33.2868457 -24.07617188 32.62304688 C-26.50019053 30.81944523 -28.93838252 29.04290329 -31.41796875 27.31640625 C-31.94003906 26.88199219 -32.46210937 26.44757813 -33 26 C-33 25.34 -33 24.68 -33 24 C-24.75 24 -16.5 24 -8 24 C-7.01 20.37 -6.02 16.74 -5 13 C-4.14656267 10.58873903 -3.25804941 8.18915122 -2.3125 5.8125 C-1.87550781 4.70519531 -1.43851563 3.59789062 -0.98828125 2.45703125 C-0.66214844 1.64621094 -0.33601562 0.83539063 0 0 Z " fill="#0916BF" transform="translate(664,336)"/>
<path d="M0 0 C0.78761719 -0.00257813 1.57523437 -0.00515625 2.38671875 -0.0078125 C4.3125 0.125 4.3125 0.125 5.3125 1.125 C5.4077822 4.10798214 5.43802175 7.06776345 5.42602539 10.05102539 C5.42617142 10.98751419 5.42631744 11.92400299 5.4264679 12.88887024 C5.42576837 16.00015539 5.41797415 19.11138149 5.41015625 22.22265625 C5.40829221 24.37357043 5.40686824 26.52448503 5.40586853 28.67539978 C5.40204225 34.34881758 5.39221102 40.02220995 5.38116455 45.69561768 C5.3709528 51.48001766 5.36637142 57.26442173 5.36132812 63.04882812 C5.35058885 74.40756328 5.33351111 85.76627953 5.3125 97.125 C0.6925 97.125 -3.9275 97.125 -8.6875 97.125 C-8.6875 65.445 -8.6875 33.765 -8.6875 1.125 C-5.4712116 0.3209279 -3.23228378 -0.01068524 0 0 Z " fill="#0613BF" transform="translate(428.6875,332.875)"/>
<path d="M0 0 C1.68272986 0.62501395 3.34630643 1.30177383 5 2 C5.86882812 2.31324219 6.73765625 2.62648438 7.6328125 2.94921875 C10 5 10 5 10.46313477 6.99926758 C10.65359698 9.67457862 10.69296348 12.31788905 10.6875 15 C10.72827418 16.98708343 10.77394283 18.97407177 10.82421875 20.9609375 C10.84661621 21.96608398 10.86901367 22.97123047 10.89208984 24.00683594 C11.0565921 28.5697266 11.49934164 33.08831299 12 37.625 C12.08338623 38.41132812 12.16677246 39.19765625 12.25268555 40.0078125 C12.6324626 43.41493376 13.12016619 46.6887088 14 50 C15.92914791 49.93289243 15.92914791 49.93289243 18 49 C19.58019757 46.5044532 19.58019757 46.5044532 20.796875 43.35546875 C21.52197266 41.62780273 21.52197266 41.62780273 22.26171875 39.86523438 C22.75285156 38.65158203 23.24398437 37.43792969 23.75 36.1875 C24.25660156 34.98544922 24.76320313 33.78339844 25.28515625 32.54492188 C28.12334976 25.98959014 28.12334976 25.98959014 29 19 C28.34 18.67 27.68 18.34 27 18 C27 17.01 27 16.02 27 15 C32.34844008 15.53484401 36.35796103 17.46690767 41 20 C40.505 21.485 40.505 21.485 40 23 C39.22543457 23.23501221 38.45086914 23.47002441 37.65283203 23.7121582 C33.75043527 25.60661273 32.98138199 28.74518687 31.5546875 32.60546875 C31.25813263 33.36289871 30.96157776 34.12032867 30.65603638 34.90071106 C29.71176907 37.3233674 28.79301307 39.75478942 27.875 42.1875 C27.25039713 43.80599532 26.62411254 45.42384271 25.99609375 47.04101562 C25.10679718 49.33246105 24.21998281 51.62452703 23.34616089 53.92192078 C21.66856925 58.33156005 19.88644019 62.67534472 18 67 C12.25 66.25 12.25 66.25 10 64 C9.42163086 61.59594727 9.42163086 61.59594727 8.96484375 58.56640625 C8.7956543 57.45048096 8.62646484 56.33455566 8.45214844 55.18481445 C8.28231445 53.98945068 8.11248047 52.79408691 7.9375 51.5625 C7.7612207 50.35231201 7.58494141 49.14212402 7.40332031 47.89526367 C6.00986532 37.93627509 5.24477252 28.04791193 5 18 C3.10203387 18.0935132 3.10203387 18.0935132 1 19 C-0.85248864 21.37490384 -0.85248864 21.37490384 -2.453125 24.390625 C-3.071875 25.49277344 -3.690625 26.59492187 -4.328125 27.73046875 C-4.64330078 28.30845215 -4.95847656 28.88643555 -5.28320312 29.48193359 C-6.24384067 31.2387359 -7.23124815 32.98081271 -8.21875 34.72265625 C-12.25308827 41.43600371 -12.25308827 41.43600371 -13 49 C-12.08431094 51.25132517 -12.08431094 51.25132517 -11 53 C-15.34863652 52.43555175 -18.17827655 50.84572036 -21.8125 48.4375 C-23.27623047 47.47650391 -23.27623047 47.47650391 -24.76953125 46.49609375 C-25.50558594 46.00238281 -26.24164063 45.50867188 -27 45 C-26.67 44.01 -26.34 43.02 -26 42 C-24.86606812 42.13124268 -24.86606812 42.13124268 -23.70922852 42.26513672 C-20.90774136 42.28070372 -20.90774136 42.28070372 -19.24194336 40.23876953 C-18.45509155 39.0106958 -18.45509155 39.0106958 -17.65234375 37.7578125 C-17.0579248 36.84290039 -16.46350586 35.92798828 -15.85107422 34.98535156 C-15.24021973 34.00018555 -14.62936523 33.01501953 -14 32 C-13.3827002 31.02772461 -12.76540039 30.05544922 -12.12939453 29.05371094 C-10.23100236 26.01806275 -8.39172701 22.95274704 -6.5625 19.875 C-5.92634766 18.84246094 -5.29019531 17.80992187 -4.63476562 16.74609375 C-1.1388643 10.85074995 0.86724942 6.88843826 0 0 Z " fill="#0D19C1" transform="translate(267,601)"/>
<path d="M0 0 C1.1577506 3.47325181 1.06866652 6.36067448 1 10 C0.01 10.33 -0.98 10.66 -2 11 C-2.226875 10.360625 -2.45375 9.72125 -2.6875 9.0625 C-3.81925974 6.8376401 -3.81925974 6.8376401 -6.0625 6.1875 C-10.65767887 5.89419071 -15.82123785 5.91061892 -20 8 C-19.67 13.28 -19.34 18.56 -19 24 C-14.85614558 25.0359636 -11.43468682 24.90660941 -7.25 24.5625 C-6.20392578 24.48418945 -6.20392578 24.48418945 -5.13671875 24.40429688 C-3.42403797 24.27525928 -1.71194934 24.13840386 0 24 C0 25.32 0 26.64 0 28 C-3.1653986 29.5826993 -6.64641509 29.65696549 -10.125 30.0625 C-10.87910156 30.15337891 -11.63320313 30.24425781 -12.41015625 30.33789062 C-14.27304188 30.56190852 -16.13647252 30.78138573 -18 31 C-18.02690844 33.62506802 -18.04679404 36.24986173 -18.0625 38.875 C-18.07087891 39.62136719 -18.07925781 40.36773438 -18.08789062 41.13671875 C-18.20688084 45.19845578 -18.20688084 45.19845578 -17 49 C-7.23858703 49.52269855 -7.23858703 49.52269855 2 47 C3.53146378 43.99405579 3.53146378 43.99405579 4 41 C5.32 41.33 6.64 41.66 8 42 C8.495 46.95 8.495 46.95 9 52 C1.94173641 53.75534664 -4.94206503 54.57834381 -12.1875 55.125 C-13.24130859 55.21136719 -14.29511719 55.29773438 -15.38085938 55.38671875 C-20.26392526 55.77441018 -25.09719822 56.11854788 -30 56 C-30.495 54.515 -30.495 54.515 -31 53 C-30.360625 52.71125 -29.72125 52.4225 -29.0625 52.125 C-26.84793921 51.17176549 -26.84793921 51.17176549 -26 49 C-25.97119171 46.28435058 -26.00317627 43.59944209 -26.0859375 40.88671875 C-26.10717682 40.08015335 -26.12841614 39.27358795 -26.15029907 38.44258118 C-26.19660121 36.73354088 -26.2455327 35.02457013 -26.296875 33.31567383 C-26.37437161 30.70863933 -26.44172259 28.1014864 -26.5078125 25.49414062 C-26.55407703 23.83331622 -26.60093295 22.17250815 -26.6484375 20.51171875 C-26.67821182 19.3458448 -26.67821182 19.3458448 -26.70858765 18.15641785 C-26.82920187 14.33631223 -27.09660129 10.71925283 -28 7 C-28.99 6.67 -29.98 6.34 -31 6 C-31 5.01 -31 4.02 -31 3 C-26.5837353 2.49640653 -22.16692737 1.99774511 -17.75 1.5 C-16.49574219 1.35691406 -15.24148438 1.21382812 -13.94921875 1.06640625 C-12.14130859 0.86337891 -12.14130859 0.86337891 -10.296875 0.65625 C-9.18666992 0.53056641 -8.07646484 0.40488281 -6.93261719 0.27539062 C-4 0 -4 0 0 0 Z " fill="#0F1BC2" transform="translate(424,633)"/>
<path d="M0 0 C3.53974083 2.20250541 5.44330824 4.17229038 7 8 C7.4140625 10.796875 7.4140625 10.796875 7.625 13.75 C7.69976563 14.73484375 7.77453125 15.7196875 7.8515625 16.734375 C7.90054688 17.48203125 7.94953125 18.2296875 8 19 C8.88042969 19.08636719 9.76085937 19.17273438 10.66796875 19.26171875 C21.33723004 20.55245069 21.33723004 20.55245069 24.25 23.5 C27.39184 27.98834286 27.87371258 31.59336273 27 37 C23.89204136 43.79328509 17.79703339 48.25523615 11 51 C7.48672064 51.70877479 4.49273262 51.85460479 1 51 C-2.0625 48.5625 -2.0625 48.5625 -4 46 C-4.33 45.67 -4.66 45.34 -5 45 C-5.31877874 38.97133153 -5.31403443 32.91315492 -4 27 C-4.66386719 26.92523437 -5.32773437 26.85046875 -6.01171875 26.7734375 C-14.13553818 25.56375928 -14.13553818 25.56375928 -17.125 22.375 C-19.38707336 18.30326795 -19.98216266 15.54704934 -19 11 C-14.79433838 2.90020725 -9.11564036 -0.78583107 0 0 Z M-14 8 C-15.25411568 11.36174137 -15.25411568 11.36174137 -15 15 C-12.77020332 19.25798376 -12.77020332 19.25798376 -9 22 C-7.33765189 22.14601706 -5.66849493 22.22089834 -4 22.25 C-2.6696875 22.28867187 -2.6696875 22.28867187 -1.3125 22.328125 C-0.549375 22.21984375 0.21375 22.1115625 1 22 C3.6790573 17.98141405 3.69610694 14.72358279 3 10 C1.20606332 7.12970131 0.01736724 5.50868362 -3 4 C-8.05344865 3.43850571 -10.5721945 4.1804453 -14 8 Z M1.4375 26.8125 C-1.21368383 30.84691017 -1.40155056 34.26170344 -1 39 C0.90601551 43.04075289 2.24301572 44.62150786 6.25 46.625 C11.21096703 47.1210967 13.96639014 45.77992031 18 43 C20.96266029 40.40767225 20.99292653 39.05570354 21.5 35.0625 C21.38193306 31.5467288 20.99735113 30.99672377 18.625 28.0625 C13.65473363 24.15729071 6.82907968 22.99894364 1.4375 26.8125 Z " fill="#0E1AC2" transform="translate(536,589)"/>
<path d="M0 0 C6.41412938 3.76671938 10.46809819 9.09481323 13 16 C12.58744165 19.24586348 12.06635368 19.93539247 9.625 22.3125 C8.75875 22.869375 7.8925 23.42625 7 24 C6.01 23.67 5.02 23.34 4 23 C4.5259375 21.9790625 4.5259375 21.9790625 5.0625 20.9375 C6.46582338 16.54042009 5.70072674 12.90197259 4.125 8.625 C3.0125 6.67083333 3.0125 6.67083333 0 6 C-5.61687323 5.69461665 -5.61687323 5.69461665 -11 7 C-13.07708947 13.23126842 -12.15899818 17.96548564 -10 24 C-8.21698178 29.05613023 -7.26438252 32.66677325 -8 38 C-10.39882933 42.79765866 -13.22414226 45.565249 -18 48 C-23.9007465 48.87418467 -28.21240509 47.33337476 -33 44 C-38.79154575 38.90391937 -42.71679771 32.36094906 -45 25 C-43.65117186 20.95351557 -41.65173931 20.04497401 -38 18 C-37.01 18.33 -36.02 18.66 -35 19 C-34.67 19.99 -34.34 20.98 -34 22 C-34.99 22.33 -35.98 22.66 -37 23 C-37.45973219 28.74665235 -36.59526758 31.50591552 -33 36 C-32.401875 36.763125 -31.80375 37.52625 -31.1875 38.3125 C-28.12059916 40.67839493 -25.84126919 40.93260931 -22 41 C-19.05244268 39.65437601 -17.45722728 38.91445456 -16 36 C-15.50995404 30.7075036 -16.21843923 26.95482839 -18 21.9375 C-19.58965171 17.42402461 -20.77300518 13.83128235 -20 9 C-15.62712768 0.57817182 -9.18144299 -1.9468176 0 0 Z " fill="#0F1BC2" transform="translate(203,541)"/>
<path d="M0 0 C1.609375 1.0703125 1.609375 1.0703125 2.609375 3.0703125 C2.52285869 4.61644264 2.36934864 6.15940637 2.171875 7.6953125 C2.01912109 8.92121094 2.01912109 8.92121094 1.86328125 10.171875 C1.77949219 10.79835938 1.69570313 11.42484375 1.609375 12.0703125 C0.289375 12.0703125 -1.030625 12.0703125 -2.390625 12.0703125 C-2.4525 10.9771875 -2.514375 9.8840625 -2.578125 8.7578125 C-3.0438906 5.06933716 -3.0438906 5.06933716 -5.328125 3.1328125 C-11.00829998 1.16213955 -16.23471696 1.05337475 -21.703125 3.6328125 C-29.10355736 10.34483255 -31.55918941 17.70128743 -32.67578125 27.59765625 C-32.87682235 32.711093 -31.96109588 36.54982923 -29.390625 41.0703125 C-25.74247249 44.92693087 -21.61112537 46.50568391 -16.390625 47.0703125 C-13.34832901 46.94276282 -10.39051527 46.58418259 -7.390625 46.0703125 C-6.730625 43.7603125 -6.070625 41.4503125 -5.390625 39.0703125 C-3.740625 39.4003125 -2.090625 39.7303125 -0.390625 40.0703125 C-0.45062606 41.6963412 -0.5394135 43.32132799 -0.640625 44.9453125 C-0.68703125 45.85023438 -0.7334375 46.75515625 -0.78125 47.6875 C-1.390625 50.0703125 -1.390625 50.0703125 -3.09765625 51.3671875 C-12.07753938 54.12081435 -22.01213447 51.71411241 -30.390625 48.0703125 C-34.61505003 45.02872648 -37.86932938 42.14672143 -39.390625 37.0703125 C-40.62607408 25.48953729 -39.32021389 15.39202551 -32.515625 5.6328125 C-24.29056722 -4.52877787 -11.43945768 -5.63622915 0 0 Z " fill="#0E1AC2" transform="translate(363.390625,634.9296875)"/>
<path d="M0 0 C7.53741395 4.30075972 10.41351782 11.56891796 12.703125 19.59375 C13.22750779 21.56018545 13.74302487 23.52900484 14.25 25.5 C14.518125 26.51320313 14.78625 27.52640625 15.0625 28.5703125 C15.71617335 31.04493303 16.36179349 33.52135429 17 36 C19.42048538 35.61983083 20.68686867 35.34015423 22.37207031 33.50952148 C22.77006836 32.88634033 23.16806641 32.26315918 23.578125 31.62109375 C24.01640625 30.94755859 24.4546875 30.27402344 24.90625 29.58007812 C25.57140625 28.51950195 25.57140625 28.51950195 26.25 27.4375 C26.70890625 26.72658203 27.1678125 26.01566406 27.640625 25.28320312 C28.77093497 23.52886786 29.88687103 21.76528659 31 20 C32.32 20.33 33.64 20.66 35 21 C33.37309987 25.88070038 30.60731883 29.76134478 27.6875 33.9375 C27.21376953 34.62779297 26.74003906 35.31808594 26.25195312 36.02929688 C23.3580463 40.20586555 20.31123015 44.14594523 17 48 C15.09765625 47.31835938 15.09765625 47.31835938 13 46 C12.05859375 43.72851562 12.05859375 43.72851562 11.4375 40.90625 C11.19773437 39.875 10.95796875 38.84375 10.7109375 37.78125 C10.47632813 36.6984375 10.24171875 35.615625 10 34.5 C7.12694714 19.03775356 7.12694714 19.03775356 -2 7 C-5.48690078 6.08239453 -7.84044182 5.65526649 -11.3125 6.6875 C-13.431788 8.33583511 -14.14874336 9.44623008 -15 12 C-15.49609666 16.27351817 -15.49609666 16.27351817 -13.5 19.875 C-13.005 20.24625 -12.51 20.6175 -12 21 C-12.33 21.99 -12.66 22.98 -13 24 C-16.93673644 22.68775452 -19.22719294 21.08089673 -22 18 C-19.96039594 11.04680434 -17.8146421 5.55281493 -12.3125 0.5625 C-7.84594061 -1.54436764 -4.67566068 -1.52325531 0 0 Z " fill="#0F1BC2" transform="translate(593,532)"/>
<path d="M0 0 C2.60724231 2.33931944 4.05561862 4.71861055 5.63671875 7.83203125 C6.12817383 8.78972412 6.61962891 9.74741699 7.12597656 10.73413086 C7.6412793 11.74999268 8.15658203 12.76585449 8.6875 13.8125 C13.24291146 22.68002569 17.93881169 31.41086573 23 40 C24.66666667 39.66666667 26.33333333 39.33333333 28 39 C28.928125 38.814375 29.85625 38.62875 30.8125 38.4375 C31.534375 38.293125 32.25625 38.14875 33 38 C33 38.99 33 39.98 33 41 C29.21179916 43.00661684 25.41888948 45.0041624 21.625 47 C20.54476562 47.57234375 19.46453125 48.1446875 18.3515625 48.734375 C17.3203125 49.27578125 16.2890625 49.8171875 15.2265625 50.375 C14.27346191 50.87773438 13.32036133 51.38046875 12.33837891 51.8984375 C10 53 10 53 8 53 C8.125 51.25 8.125 51.25 9 49 C12.0625 46.75 12.0625 46.75 15 45 C14.43703489 40.19730327 13.02850861 36.58752142 10.83984375 32.2890625 C10.53051407 31.67606293 10.22118439 31.06306335 9.90248108 30.43148804 C8.92166085 28.49207387 7.92981374 26.55855427 6.9375 24.625 C6.2668389 23.30376039 5.59690944 21.98214913 4.92773438 20.66015625 C3.29359525 17.43576275 1.6495238 14.21655555 0 11 C-3.33283508 11.65250351 -3.33283508 11.65250351 -5.75 14.0625 C-6.1625 14.701875 -6.575 15.34125 -7 16 C-8.32 15.67 -9.64 15.34 -11 15 C-10.06915029 13.22566188 -9.13005387 11.45564851 -8.1875 9.6875 C-7.40439453 8.20830078 -7.40439453 8.20830078 -6.60546875 6.69921875 C-4.75604935 3.58985426 -3.23561521 1.6178076 0 0 Z " fill="#0E1BC2" transform="translate(495,611)"/>
<path d="M0 0 C-0.19464844 0.75539063 -0.38929688 1.51078125 -0.58984375 2.2890625 C-1.16239899 7.46932421 -0.34031056 12.24476014 0.4375 17.375 C0.65889648 18.90833984 0.65889648 18.90833984 0.88476562 20.47265625 C1.24842384 22.98307102 1.62038876 25.4919566 2 28 C0.35 28.66 -1.3 29.32 -3 30 C-6.3 25.71 -9.6 21.42 -13 17 C-12.67 18.876875 -12.34 20.75375 -12 22.6875 C-11.32610564 26.52027417 -10.88442957 30.10672105 -11 34 C-13.15625 34.8515625 -13.15625 34.8515625 -16 35 C-18.12033375 33.16603316 -19.73907075 31.51080495 -21.5 29.375 C-22.4260055 28.29855103 -23.35308117 27.2230217 -24.28125 26.1484375 C-24.73113281 25.62217773 -25.18101562 25.09591797 -25.64453125 24.55371094 C-27.65915879 22.24443686 -29.74632693 20.07615772 -32 18 C-32.66 18 -33.32 18 -34 18 C-34.33 17.01 -34.66 16.02 -35 15 C-33.71086513 14.32845067 -32.41859796 13.66291141 -31.125 13 C-30.40570313 12.62875 -29.68640625 12.2575 -28.9453125 11.875 C-27 11 -27 11 -25 11 C-25.08121094 11.87914063 -25.16242188 12.75828125 -25.24609375 13.6640625 C-24.9416801 17.79055871 -23.72192723 19.2622082 -21.0625 22.375 C-20.33160156 23.24898437 -19.60070312 24.12296875 -18.84765625 25.0234375 C-18.23792969 25.67570312 -17.62820313 26.32796875 -17 27 C-16.67 27 -16.34 27 -16 27 C-16.34224609 25.55367187 -16.34224609 25.55367187 -16.69140625 24.078125 C-16.97886719 22.81484375 -17.26632812 21.5515625 -17.5625 20.25 C-17.85253906 18.99703125 -18.14257812 17.7440625 -18.44140625 16.453125 C-18.93444283 13.40526252 -19.07666879 11.82358172 -18 9 C-16.68 8.67 -15.36 8.34 -14 8 C-12.70681744 9.6029449 -11.41550844 11.20740142 -10.125 12.8125 C-9.40570313 13.70582031 -8.68640625 14.59914062 -7.9453125 15.51953125 C-6 18 -6 18 -4 21 C-4.66 16.05 -5.32 11.1 -6 6 C-6.99 5.67 -7.98 5.34 -9 5 C-9 4.34 -9 3.68 -9 3 C-2.25 0 -2.25 0 0 0 Z " fill="#0D1AC1" transform="translate(285,115)"/>
<path d="M0 0 C2.83853182 1.16404557 3.37739679 2.53291182 4.77099609 5.24023438 C5.25415283 6.16787598 5.73730957 7.09551758 6.23510742 8.05126953 C6.7380835 9.05722168 7.24105957 10.06317383 7.75927734 11.09960938 C8.28094482 12.12489746 8.8026123 13.15018555 9.34008789 14.20654297 C12.86225866 21.21646415 16.21882576 28.29660454 19.38427734 35.47460938 C19.77510498 36.34375977 20.16593262 37.21291016 20.56860352 38.10839844 C22.03239207 41.53577271 23.09380526 44.05450663 22.98974609 47.81054688 C22.07177734 49.84960938 22.07177734 49.84960938 19.07177734 51.84960938 C15.11771581 43.19272942 11.60136504 34.36292175 8.05029297 25.53515625 C7.58171875 24.37693359 7.11314453 23.21871094 6.63037109 22.02539062 C6.21070068 20.98294189 5.79103027 19.94049316 5.35864258 18.86645508 C4.4516431 16.74014269 3.46052048 14.6487625 2.41186523 12.58862305 C1.07177734 9.84960938 1.07177734 9.84960938 1.07177734 7.84960938 C-4.59421006 8.48363639 -7.256232 11.3784634 -11.10009766 15.34960938 C-13.02309026 17.97934285 -13.51362595 19.20564893 -13.49072266 22.41210938 C-13.30509766 23.54648437 -13.11947266 24.68085937 -12.92822266 25.84960938 C-16.92822266 25.84960938 -16.92822266 25.84960938 -19.24072266 24.09960938 C-20.92822266 21.84960938 -20.92822266 21.84960938 -20.76025391 19.91210938 C-19.72039697 17.33443585 -18.47127736 16.3240081 -16.30322266 14.59960938 C-12.63797566 11.5463336 -9.54025355 8.29145129 -6.47119141 4.64648438 C-5.70742188 3.75703125 -5.70742188 3.75703125 -4.92822266 2.84960938 C-4.44998047 2.25664063 -3.97173828 1.66367187 -3.47900391 1.05273438 C-1.92822266 -0.15039062 -1.92822266 -0.15039062 0 0 Z " fill="#101CC2" transform="translate(563.92822265625,558.150390625)"/>
<path d="M0 0 C3.106467 3.106467 3.69089782 6.83467488 5 11 C10.94 11.99 10.94 11.99 17 13 C14.42215154 15.64752004 12.08351902 17.94432065 9 20 C9.2165625 21.8253125 9.2165625 21.8253125 9.4375 23.6875 C9.51871094 24.37199219 9.59992188 25.05648437 9.68359375 25.76171875 C10.02795896 28.19778377 10.49813683 30.59190025 11 33 C10.38511719 32.6390625 9.77023437 32.278125 9.13671875 31.90625 C7.92435547 31.21015625 7.92435547 31.21015625 6.6875 30.5 C5.88699219 30.0359375 5.08648437 29.571875 4.26171875 29.09375 C1.9685882 27.78232114 1.9685882 27.78232114 -1 28 C-3.32017794 29.08720188 -3.32017794 29.08720188 -5.6875 30.5 C-7.8221875 31.7375 -7.8221875 31.7375 -10 33 C-9.34 28.71 -8.68 24.42 -8 20 C-9.32 19.030625 -10.64 18.06125 -12 17.0625 C-13.35348244 16.06853634 -14.69243643 15.0536394 -16 14 C-16 13.67 -16 13.34 -16 13 C-9.565 12.505 -9.565 12.505 -3 12 C-2.690625 10.576875 -2.38125 9.15375 -2.0625 7.6875 C-1.48800637 5.04482928 -0.85697694 2.57093082 0 0 Z " fill="#0A17BF" transform="translate(439,202)"/>
<path d="M0 0 C2.45823172 3.68734758 3.01242616 6.69699971 4 11 C8.29 11.33 12.58 11.66 17 12 C13.62722811 15.66186662 11.77737198 17.08905121 7 19 C8.32 23.29 9.64 27.58 11 32 C6 30 6 30 4 28.3125 C2.06751305 26.7722598 2.06751305 26.7722598 -0.375 27.0625 C-3.64380227 28.22992938 -6.19399459 29.97706587 -9 32 C-9.66 31.67 -10.32 31.34 -11 31 C-9.515 25.555 -9.515 25.555 -8 20 C-9.32 19.05125 -10.64 18.1025 -12 17.125 C-14.25 15.5078125 -14.25 15.5078125 -16 14 C-16 13.34 -16 12.68 -16 12 C-15.18015625 11.97164062 -14.3603125 11.94328125 -13.515625 11.9140625 C-10.08274151 11.61019482 -7.23077685 11.22013381 -4 10 C-1.76343404 6.87294944 -0.79981372 3.73706067 0 0 Z " fill="#0C18C0" transform="translate(339,203)"/>
<path d="M0 0 C3.66060821 0.58536753 5.54535164 2.083239 8.25 4.5625 C8.95640625 5.20316406 9.6628125 5.84382812 10.390625 6.50390625 C10.92171875 6.99761719 11.4528125 7.49132812 12 8 C11.67 8.99 11.34 9.98 11 11 C10.11699219 10.88398437 9.23398438 10.76796875 8.32421875 10.6484375 C4.54008868 11.04863927 3.4817302 12.02107573 1.11914062 14.91235352 C0.47235352 15.76011353 0.47235352 15.76011353 -0.1875 16.625 C-0.88262695 17.49112915 -0.88262695 17.49112915 -1.59179688 18.37475586 C-3.07897878 20.23648542 -4.53936771 22.11739663 -6 24 C-7.01538472 25.28117182 -8.0323076 26.56112611 -9.05078125 27.83984375 C-11.72471725 31.20831425 -14.37219361 34.59539273 -17 38 C-17.60457031 38.71542969 -18.20914063 39.43085937 -18.83203125 40.16796875 C-20.71817348 43.12649953 -19.6951259 45.71395029 -19 49 C-23.18238834 48.45230629 -25.59868545 46.10111111 -28.75 43.4375 C-29.73484375 42.61121094 -30.7196875 41.78492188 -31.734375 40.93359375 C-32.85585937 39.97646484 -32.85585937 39.97646484 -34 39 C-33.67 38.01 -33.34 37.02 -33 36 C-32.113125 36.268125 -31.22625 36.53625 -30.3125 36.8125 C-28.6728125 36.9053125 -28.6728125 36.9053125 -27 37 C-24.5202976 34.8451598 -24.5202976 34.8451598 -22 32 C-21.06837424 31.01759725 -20.13606541 30.03584188 -19.203125 29.0546875 C-5.75172476 16.35925327 -5.75172476 16.35925327 0 0 Z " fill="#0E1AC1" transform="translate(235,578)"/>
<path d="M0 0 C0.66 0 1.32 0 2 0 C2.99 3.3 3.98 6.6 5 10 C8.96 10.33 12.92 10.66 17 11 C14.42215154 13.64752004 12.08351902 15.94432065 9 18 C9.66 21.96 10.32 25.92 11 30 C6 28 6 28 4 26.25 C3.34 25.8375 2.68 25.425 2 25 C-0.49004504 25.56076801 -0.49004504 25.56076801 -3 27 C-4.093125 27.53625 -5.18625 28.0725 -6.3125 28.625 C-7.6428125 29.305625 -7.6428125 29.305625 -9 30 C-8.76990234 28.80503906 -8.76990234 28.80503906 -8.53515625 27.5859375 C-7.39277932 21.44822346 -7.39277932 21.44822346 -9.4921875 15.90234375 C-11.26459719 14.45380812 -13.06677046 13.21971839 -15 12 C-15 11.67 -15 11.34 -15 11 C-9.06 10.505 -9.06 10.505 -3 10 C-2.01 6.7 -1.02 3.4 0 0 Z " fill="#0C19C0" transform="translate(388,190)"/>
<path d="M0 0 C5.90422206 0.98169963 10.69267363 5.05805857 15 9 C16.5 12.6875 16.5 12.6875 16 16 C13.8125 18.9375 13.8125 18.9375 11 21 C9.68 21 8.36 21 7 21 C6.67 25.29 6.34 29.58 6 34 C2.06830895 34 0.83572772 32.60580385 -2 30 C-2 29.34 -2 28.68 -2 28 C-1.01 27.67 -0.02 27.34 1 27 C1.33 24.36 1.66 21.72 2 19 C0.68 18.67 -0.64 18.34 -2 18 C-4.29379749 21.44069624 -5 22.72290301 -5 27 C-7.9719385 25.87548273 -10.33440687 24.77706209 -13 23 C-13 22.01 -13 21.02 -13 20 C-12.38866211 19.89655273 -11.77732422 19.79310547 -11.14746094 19.68652344 C-7.56492059 18.54121836 -6.14567634 15.3003717 -4.25 12.25 C-3.83878906 11.62867188 -3.42757812 11.00734375 -3.00390625 10.3671875 C-0.73828941 6.7994055 0.5523379 4.25625091 0 0 Z M4 7 C2.1041643 9.43750304 1 11.05695832 1 14.1875 C1.92621455 16.21520576 1.92621455 16.21520576 4.3125 17.4375 C7.04554759 18.32574045 7.04554759 18.32574045 9.3125 16.625 C9.869375 16.08875 10.42625 15.5525 11 15 C10.62952882 12.25851328 10.31412056 10.41406801 8.625 8.1875 C6.93174698 6.70499171 6.93174698 6.70499171 4 7 Z " fill="#0E1AC1" transform="translate(545,142)"/>
<path d="M0 0 C3.5 0.9375 3.5 0.9375 5.4375 3.3125 C6.5 5.9375 6.5 5.9375 6.5 8.9375 C10.79 8.9375 15.08 8.9375 19.5 8.9375 C19.5 12.93654969 17.77413033 14.73950422 15.5 17.9375 C14.84 17.6075 14.18 17.2775 13.5 16.9375 C13.5 15.9475 13.5 14.9575 13.5 13.9375 C10.86 13.9375 8.22 13.9375 5.5 13.9375 C4.84 15.5875 4.18 17.2375 3.5 18.9375 C6.47 19.2675 9.44 19.5975 12.5 19.9375 C12.0206753 24.25142226 10.7542015 26.10319547 7.5 28.9375 C7.438125 28.31875 7.37625 27.7 7.3125 27.0625 C7.044375 26.36125 6.77625 25.66 6.5 24.9375 C4.84337904 24.24624809 3.17421179 23.58498522 1.5 22.9375 C-1.588055 21.14391221 -4.62228155 19.27556058 -7.66015625 17.3984375 C-10.56055475 15.63252763 -10.56055475 15.63252763 -14.5 15.9375 C-13.19389223 12.40663451 -11.65115051 9.38031844 -9.5625 6.25 C-9.05847656 5.48300781 -8.55445313 4.71601563 -8.03515625 3.92578125 C-5.53822153 0.6918378 -4.10215625 -0.07325279 0 0 Z M-2.5 3.9375 C-5.06249975 6.24982422 -5.06249975 6.24982422 -7.5 8.9375 C-7.5 9.9275 -7.5 10.9175 -7.5 11.9375 C-4.035 13.9175 -4.035 13.9175 -0.5 15.9375 C1.45052208 13.74316266 2.43270961 12.28236324 3 9.375 C2.73233663 6.67676738 2.73233663 6.67676738 0 5.125 C-0.825 4.733125 -1.65 4.34125 -2.5 3.9375 Z " fill="#0F1BC1" transform="translate(150.5,226.0625)"/>
<path d="M0 0 C1.53202706 0.25195908 3.05257128 0.57596777 4.5625 0.9375 C5.38878906 1.13214844 6.21507812 1.32679687 7.06640625 1.52734375 C8.02353516 1.76130859 8.02353516 1.76130859 9 2 C9 3.32 9 4.64 9 6 C8.34 6 7.68 6 7 6 C7.33 7.98 7.66 9.96 8 12 C10.59141286 10.8624438 10.59141286 10.8624438 13 9 C13.41780879 6.37305578 13.41780879 6.37305578 13 4 C15.97 4.99 18.94 5.98 22 7 C22 7.99 22 8.98 22 10 C20.30729167 10.68359375 18.61458333 11.3671875 16.921875 12.05078125 C14.53863141 13.15467817 14.53863141 13.15467817 11 16 C11.66 20.29 12.32 24.58 13 29 C13.66 29 14.32 29 15 29 C14.67 30.32 14.34 31.64 14 33 C11.03 32.01 8.06 31.02 5 30 C5 29.01 5 28.02 5 27 C5.66 26.67 6.32 26.34 7 26 C6.67 24.02 6.34 22.04 6 20 C3.46115547 21.15565651 3.46115547 21.15565651 1 23 C0.11341534 25.59122743 0.11341534 25.59122743 0 28 C-2.64 27.34 -5.28 26.68 -8 26 C-8 25.01 -8 24.02 -8 23 C-6.9275 22.4225 -5.855 21.845 -4.75 21.25 C-0.27464607 18.78444752 -0.27464607 18.78444752 3 15 C2.70479608 9.95623024 1.40153607 5.43360505 -1 1 C-0.67 0.67 -0.34 0.34 0 0 Z " fill="#0E1AC1" transform="translate(466,106)"/>
<path d="M0 0 C3.89917968 1.61537444 6.71293772 4.27924873 9.75 7.125 C10.25660156 7.59292969 10.76320313 8.06085938 11.28515625 8.54296875 C12.52719141 9.69126541 13.76411494 10.84508672 15 12 C13.68 13.65 12.36 15.3 11 17 C10.01 16.67 9.02 16.34 8 16 C7.938125 15.236875 7.87625 14.47375 7.8125 13.6875 C7.23064738 10.76948191 7.23064738 10.76948191 4.4375 9.1875 C3.633125 8.795625 2.82875 8.40375 2 8 C1.34 9.65 0.68 11.3 0 13 C1.65 14.65 3.3 16.3 5 18 C4.34 19.32 3.68 20.64 3 22 C1.02 20.35 -0.96 18.7 -3 17 C-4.98 17.99 -4.98 17.99 -7 19 C-7 20.32 -7 21.64 -7 23 C-4.49515403 25.41847197 -3.53986194 26 0 26 C0 29 0 29 -1.375 30.6875 C-3 32 -3 32 -5 32 C-5 31.34 -5 30.68 -5 30 C-5.57234375 29.75507813 -6.1446875 29.51015625 -6.734375 29.2578125 C-9.38024402 27.78889901 -11.14853139 26.04651756 -13.25 23.875 C-13.95640625 23.15054688 -14.6628125 22.42609375 -15.390625 21.6796875 C-15.92171875 21.12539062 -16.4528125 20.57109375 -17 20 C-16 18 -16 18 -13.765625 17.20703125 C-10.21251394 15.65630905 -8.34185542 13.55483706 -5.75 10.6875 C-4.87859375 9.74261719 -4.0071875 8.79773438 -3.109375 7.82421875 C-1.02699571 5.03614425 -0.32343599 3.41473764 0 0 Z " fill="#101CC1" transform="translate(581,169)"/>
<path d="M0 0 C6.38925283 2.01765879 12.57723555 4.38271459 18.76977539 6.93017578 C21.8504352 8.18747333 24.75994522 9.1899863 28 10 C26.02 12.31 24.04 14.62 22 17 C21.01 16.67 20.02 16.34 19 16 C19 15.01 19 14.02 19 13 C16.24542282 13.37994168 15.17979426 13.8073633 13.25 15.875 C11.74648994 18.02006955 11.74648994 18.02006955 12 21 C13.32 21.33 14.64 21.66 16 22 C14.51153846 26.71346154 14.51153846 26.71346154 11.921875 28.1640625 C11.28765625 28.43992188 10.6534375 28.71578125 10 29 C9.54109375 28.05898437 9.0821875 27.11796875 8.609375 26.1484375 C7.98980228 24.89051714 7.36999823 23.63271069 6.75 22.375 C6.44964844 21.75753906 6.14929688 21.14007813 5.83984375 20.50390625 C2.58833353 13.02804441 2.58833353 13.02804441 -3.25 8.125 C-4.11625 8.063125 -4.11625 8.063125 -5 8 C-3.62845496 5.04590299 -2.01136276 2.55991624 0 0 Z M2 5 C3.65 8.3 5.3 11.6 7 15 C7.99 15 8.98 15 10 15 C12.42713759 12.38148757 12.42713759 12.38148757 13 9 C11.5437455 8.32880451 10.08492133 7.66318193 8.625 7 C7.81289062 6.62875 7.00078125 6.2575 6.1640625 5.875 C4.08001567 4.87504987 4.08001567 4.87504987 2 5 Z " fill="#0F1BC1" transform="translate(170,193)"/>
<path d="M0 0 C4.5924377 4.0596723 7.30294631 9.19913466 10.37695312 14.41992188 C10.80041016 15.12052734 11.22386719 15.82113281 11.66015625 16.54296875 C12.03793213 17.18258545 12.41570801 17.82220215 12.80493164 18.48120117 C14.02034087 20.31234042 14.02034087 20.31234042 17 21 C16.67 22.32 16.34 23.64 16 25 C12.04 25.495 12.04 25.495 8 26 C8 24 8 22 8 20 C3.05 20.495 3.05 20.495 -2 21 C-2 22.32 -2 23.64 -2 25 C-1.01 25 -0.02 25 1 25 C1 25.99 1 26.98 1 28 C-2.37097383 29.49821059 -4.20442119 30 -8 30 C-7.505 28.515 -7.505 28.515 -7 27 C-6.78626703 25.3022542 -6.61265449 23.59928184 -6.46484375 21.89453125 C-6.37783203 20.91162109 -6.29082031 19.92871094 -6.20117188 18.91601562 C-6.11416016 17.89185547 -6.02714844 16.86769531 -5.9375 15.8125 C-5.84662109 14.77673828 -5.75574219 13.74097656 -5.66210938 12.67382812 C-5.43816517 10.11614956 -5.21759327 7.55822541 -5 5 C-5.99 5 -6.98 5 -8 5 C-7.67 4.01 -7.34 3.02 -7 2 C-3.4375 0.8125 -3.4375 0.8125 0 0 Z M-1 6 C-2.3271261 9.9813783 -2.06915913 13.85045227 -2 18 C0.64 17.34 3.28 16.68 6 16 C5.21516341 14.51719804 4.42190666 13.0388502 3.625 11.5625 C3.18414062 10.73878906 2.74328125 9.91507813 2.2890625 9.06640625 C1.16581441 6.86533422 1.16581441 6.86533422 -1 6 Z " fill="#0D19C0" transform="translate(317,104)"/>
<path d="M0 0 C6.84817102 0.48641215 13.33042073 1.35993952 20 3 C19.67 4.98 19.34 6.96 19 9 C17.68 9 16.36 9 15 9 C15 8.01 15 7.02 15 6 C12.36 5.67 9.72 5.34 7 5 C6.67 7.31 6.34 9.62 6 12 C8.97 12.33 11.94 12.66 15 13 C15 14.32 15 15.64 15 17 C12.03 17 9.06 17 6 17 C5.67 19.31 5.34 21.62 5 24 C7.31 24 9.62 24 12 24 C12.33 23.34 12.66 22.68 13 22 C13.99 22.33 14.98 22.66 16 23 C15.67 24.98 15.34 26.96 15 29 C8.97099313 28.48758893 2.97995357 27.930215 -3 27 C-3 26.01 -3 25.02 -3 24 C-2.34 23.67 -1.68 23.34 -1 23 C-0.43759058 20.97179493 -0.43759058 20.97179493 -0.1484375 18.52734375 C-0.01953125 17.62822266 0.109375 16.72910156 0.2421875 15.80273438 C0.36851562 14.85720703 0.49484375 13.91167969 0.625 12.9375 C0.7590625 11.98810547 0.893125 11.03871094 1.03125 10.06054688 C1.36225648 7.70803655 1.68478072 5.35466906 2 3 C1.34 3 0.68 3 0 3 C0 2.01 0 1.02 0 0 Z " fill="#0D19C0" transform="translate(425,98)"/>
<path d="M0 0 C13.66962932 5.12338579 13.66962932 5.12338579 17 10 C17.7446324 13.97137281 17.37266878 15.44099683 15.125 18.8125 C12.6240814 21.38697503 11.81327464 21.94454946 8.25 22.1875 C4.84144516 21.99085261 2.17772877 21.21056334 -1 20 C-1.67958603 22.39719432 -1.67958603 22.39719432 -2 25 C-1.34 25.66 -0.68 26.32 0 27 C-0.33 27.66 -0.66 28.32 -1 29 C-4.48670834 27.8905928 -7.77484237 26.73662334 -11 25 C-10.505 23.515 -10.505 23.515 -10 22 C-9.01 22 -8.02 22 -7 22 C-6.81824219 21.41992188 -6.63648438 20.83984375 -6.44921875 20.2421875 C-5.27213207 16.58416428 -4.11624266 13.21956946 -2.3125 9.8125 C-0.83069382 6.63720104 -0.83911519 4.4590235 -1 1 C-0.67 0.67 -0.34 0.34 0 0 Z M5 7 C4.34 8.11375 3.68 9.2275 3 10.375 C2.62875 11.00148437 2.2575 11.62796875 1.875 12.2734375 C0.84931652 13.97472667 0.84931652 13.97472667 1 16 C4.10217621 17.83832664 6.39408679 18.47446226 10 18 C12.14201526 14.78697711 12.65325876 13.73290719 12 10 C9.6167054 8.18116991 8.04181663 7 5 7 Z " fill="#0E1AC0" transform="translate(508,121)"/>
<path d="M0 0 C4.3822751 1.53764039 5.90398287 3.48727135 8.59375 7.14453125 C9.5625 9.25 9.5625 9.25 9.34765625 11.43359375 C8.5625 13.25 8.5625 13.25 6.5 14.5 C5.860625 14.7475 5.22125 14.995 4.5625 15.25 C3.9025 14.26 3.2425 13.27 2.5625 12.25 C2.85619827 10.90737935 3.1903958 9.57303717 3.5625 8.25 C3.2325 7.26 2.9025 6.27 2.5625 5.25 C0.9125 5.58 -0.7375 5.91 -2.4375 6.25 C-2.31890625 7.28640625 -2.2003125 8.3228125 -2.078125 9.390625 C-1.94678547 10.76030867 -1.81663962 12.13010717 -1.6875 13.5 C-1.56568359 14.52287109 -1.56568359 14.52287109 -1.44140625 15.56640625 C-1.13745046 19.0450114 -1.13133865 20.82624026 -3.20703125 23.69921875 C-6.48186622 25.97611802 -8.5409757 25.86524068 -12.4375 25.25 C-16.41114701 22.17945458 -18.42432684 18.80612873 -20.4375 14.25 C-19.14784824 12.87437146 -17.81060707 11.54233607 -16.4375 10.25 C-15.7775 10.25 -15.1175 10.25 -14.4375 10.25 C-13.3125 14 -13.3125 14 -14.4375 16.25 C-13.28065671 18.3495533 -13.28065671 18.3495533 -11.4375 20.25 C-8.81124861 20.58425735 -8.81124861 20.58425735 -6.4375 20.25 C-6.581875 19.68152344 -6.72625 19.11304688 -6.875 18.52734375 C-9.11705274 9.20102713 -9.11705274 9.20102713 -8.4375 4.25 C-5.73313325 0.97197969 -4.23729432 0.30816686 0 0 Z " fill="#0F1CC1" transform="translate(611.4375,200.75)"/>
<path d="M0 0 C3.07702427 2.64767205 5.62728208 5.1314313 7 9 C7 10.32 7 11.64 7 13 C5.02 13.66 3.04 14.32 1 15 C-0.11002992 11.66991025 0.31483728 10.34016824 1 7 C0.67 6.34 0.34 5.68 0 5 C-1.65 5.33 -3.3 5.66 -5 6 C-4.89300781 6.73605469 -4.78601563 7.47210938 -4.67578125 8.23046875 C-3.68929771 16.26023264 -3.68929771 16.26023264 -5.3125 20.125 C-7.51709607 22.57455119 -8.52190265 22.94687807 -11.8125 23.3125 C-15.86172141 22.91551751 -17.21235721 21.93832619 -20 19 C-21.23108679 16.70032988 -22.10027895 14.46239445 -23 12 C-22.01 10.68 -21.02 9.36 -20 8 C-18.68 8.33 -17.36 8.66 -16 9 C-16.20625 9.928125 -16.4125 10.85625 -16.625 11.8125 C-17.36692966 15.15173402 -17.36692966 15.15173402 -15 18 C-13.35 17.67 -11.7 17.34 -10 17 C-10.09539063 16.18015625 -10.19078125 15.3603125 -10.2890625 14.515625 C-10.39992188 13.43796875 -10.51078125 12.3603125 -10.625 11.25 C-10.79902344 9.64898437 -10.79902344 9.64898437 -10.9765625 8.015625 C-11.00053196 4.93155423 -10.69816131 3.52681735 -9 1 C-5.81729193 -1.30471964 -3.65499086 -1.33719178 0 0 Z " fill="#0E1AC0" transform="translate(636,234)"/>
<path d="M0 0 C0 3 0 3 -1.3671875 4.39453125 C-1.90601563 4.92433594 -2.44484375 5.45414062 -3 6 C-5.99727277 11.81884334 -7.5187563 17.50321006 -8 24 C-6.68 24.33 -5.36 24.66 -4 25 C-4 25.66 -4 26.32 -4 27 C-7.3 27.66 -10.6 28.32 -14 29 C-14.33 27.68 -14.66 26.36 -15 25 C-14.01 25 -13.02 25 -12 25 C-14.0746735 17.30186937 -17.16669258 9.55553828 -24 5 C-24 4.01 -24 3.02 -24 2 C-20.7 1.67 -17.4 1.34 -14 1 C-14.2475 1.70125 -14.495 2.4025 -14.75 3.125 C-15.09959252 7.14531402 -13.39182187 8.88338362 -11 12 C-9.68 9.36 -8.36 6.72 -7 4 C-7.66 4 -8.32 4 -9 4 C-9 3.01 -9 2.02 -9 1 C-6.04335481 -0.4783226 -3.25770263 -0.06032783 0 0 Z " fill="#0E1AC0" transform="translate(371,96)"/>
<path d="M0 0 C0.66 0.33 1.32 0.66 2 1 C2.18369141 2.33804688 2.18369141 2.33804688 2.37109375 3.703125 C3.12283867 7.64394928 4.60359959 9.61024004 7.0625 12.75 C11 17.81546573 11 17.81546573 11 20 C15.52898017 17.56928629 15.52898017 17.56928629 17.875 13.25 C17.91625 12.5075 17.9575 11.765 18 11 C21 12 21 12 23 15 C23 15.99 23 16.98 23 18 C20.9257235 19.73990668 18.92115074 21.24507485 16.6875 22.75 C16.09259766 23.17410156 15.49769531 23.59820312 14.88476562 24.03515625 C13.13671875 25.234375 13.13671875 25.234375 10 27 C9.01 26.67 8.02 26.34 7 26 C6.92394531 25.31421875 6.84789062 24.6284375 6.76953125 23.921875 C5.78481776 20.18296288 3.87947278 17.37136924 1.6875 14.25 C1.29626953 13.66089844 0.90503906 13.07179687 0.50195312 12.46484375 C-1.82060193 9.09889254 -1.82060193 9.09889254 -5.29296875 7.109375 C-5.85628906 7.07328125 -6.41960937 7.0371875 -7 7 C-5.55609075 3.19333016 -3.65047197 1.73397418 0 0 Z " fill="#0E1AC0" transform="translate(224,146)"/>
<path d="M0 0 C2 3 2 3 2.34375 4.8671875 C3.30625095 7.99531559 5.27048159 9.76142827 7.5 12.125 C11.91864407 16.83728814 11.91864407 16.83728814 13 19 C15.02463255 19.65213292 15.02463255 19.65213292 17 20 C15.54744301 23.82946843 13.57104439 25.12050295 10 27 C9.78085938 26.14019531 9.56171875 25.28039062 9.3359375 24.39453125 C7.73307037 20.32174898 5.5975349 17.82821779 2.625 14.6875 C1.90183594 13.8821582 1.90183594 13.8821582 1.1640625 13.06054688 C-2.27759725 9.34380521 -2.27759725 9.34380521 -7 8 C-5.50902342 4.2047869 -3.24299151 2.38957269 0 0 Z " fill="#0F1BC1" transform="translate(200,164)"/>
<path d="M0 0 C0 3 0 3 -2.01953125 5.36010742 C-3.40205078 6.71906128 -3.40205078 6.71906128 -4.8125 8.10546875 C-5.30081299 8.5895369 -5.78912598 9.07360504 -6.29223633 9.57234192 C-7.85459826 11.1179014 -9.42706327 12.65271107 -11 14.1875 C-12.06057762 15.23303282 -13.12048229 16.27924873 -14.1796875 17.32617188 C-16.77869434 19.89208902 -19.3868639 22.44846467 -22 25 C-22.66 24.67 -23.32 24.34 -24 24 C-21.88370326 21.65864102 -19.75558371 19.32835941 -17.625 17 C-17.02171875 16.33226562 -16.4184375 15.66453125 -15.796875 14.9765625 C-15.21679688 14.34492188 -14.63671875 13.71328125 -14.0390625 13.0625 C-13.50490723 12.47597656 -12.97075195 11.88945312 -12.42041016 11.28515625 C-11 10 -11 10 -9 10 C-8.67 9.01 -8.34 8.02 -8 7 C-6.15234375 5.17578125 -6.15234375 5.17578125 -3.9375 3.3125 C-3.20402344 2.68988281 -2.47054687 2.06726563 -1.71484375 1.42578125 C-1.14894531 0.95527344 -0.58304688 0.48476562 0 0 Z " fill="#1A26C3" transform="translate(243,217)"/>
<path d="M0 0 C1.010625 0.45375 2.02125 0.9075 3.0625 1.375 C3.0625 1.705 3.0625 2.035 3.0625 2.375 C1.825 2.601875 0.5875 2.82875 -0.6875 3.0625 C-4.85784525 4.0755094 -6.61303136 5.69459133 -8.9375 9.375 C-9.5975 8.055 -10.2575 6.735 -10.9375 5.375 C-5.17820022 -0.82193654 -5.17820022 -0.82193654 0 0 Z " fill="#1723C4" transform="translate(529.9375,590.625)"/>
<path d="M0 0 C2 1 2 1 3 3 C1.02 3.66 -0.96 4.32 -3 5 C-2.625 3.0625 -2.625 3.0625 -2 1 C-1.34 0.67 -0.68 0.34 0 0 Z " fill="#1E29C6" transform="translate(506,659)"/>
</svg>
