<?xml version="1.0" encoding="UTF-8"?>
<!DOCTYPE svg PUBLIC "-//W3C//DTD SVG 1.1//EN" "http://www.w3.org/Graphics/SVG/1.1/DTD/svg11.dtd">
<svg xmlns="http://www.w3.org/2000/svg" version="1.1" width="600px" height="813px" style="shape-rendering:geometricPrecision; text-rendering:geometricPrecision; image-rendering:optimizeQuality; fill-rule:evenodd; clip-rule:evenodd" xmlns:xlink="http://www.w3.org/1999/xlink">
<g><path style="opacity:0.981" fill="#5184c3" d="M 289.5,-0.5 C 296.5,-0.5 303.5,-0.5 310.5,-0.5C 341.043,10.5643 352.876,32.231 346,64.5C 337.665,85.4283 322.165,96.095 299.5,96.5C 269.673,94.5062 253.006,78.6729 249.5,49C 251.668,23.3441 265.002,6.84408 289.5,-0.5 Z"/></g>
<g><path style="opacity:0.988" fill="#5184c3" d="M 139.5,111.5 C 248.854,111.019 358.188,111.519 467.5,113C 495.432,121.596 516.932,138.43 532,163.5C 537.326,172.156 540.993,181.49 543,191.5C 543.667,322.833 543.667,454.167 543,585.5C 533.577,619.811 512.744,644.644 480.5,660C 473.758,662.769 466.758,664.435 459.5,665C 353.167,665.667 246.833,665.667 140.5,665C 103.393,656.897 76.5596,635.73 60,601.5C 58.0392,596.323 56.7058,590.99 56,585.5C 55.3333,454.167 55.3333,322.833 56,191.5C 65.4883,158.673 85.3216,134.173 115.5,118C 123.298,114.553 131.298,112.386 139.5,111.5 Z M 192.5,141.5 C 263.834,141.333 335.167,141.5 406.5,142C 409.734,143.944 411.9,146.778 413,150.5C 416.857,160.646 415.857,170.312 410,179.5C 408.457,181.378 406.624,182.878 404.5,184C 334.5,184.667 264.5,184.667 194.5,184C 189.309,181.483 186.142,177.317 185,171.5C 182.573,161.965 183.906,152.965 189,144.5C 190.145,143.364 191.312,142.364 192.5,141.5 Z M 336.5,210.5 C 383.168,210.333 429.835,210.5 476.5,211C 484.955,213.442 491.788,218.275 497,225.5C 499.434,228.795 501.101,232.462 502,236.5C 502.667,271.833 502.667,307.167 502,342.5C 498.245,355.255 490.078,363.755 477.5,368C 431.167,368.667 384.833,368.667 338.5,368C 323.692,364.606 314.525,355.439 311,340.5C 310.333,306.5 310.333,272.5 311,238.5C 314.857,224.815 323.357,215.482 336.5,210.5 Z M 118.5,211.5 C 165.835,211.333 213.168,211.5 260.5,212C 274.127,217.294 282.293,227.127 285,241.5C 285.667,274.5 285.667,307.5 285,340.5C 282.371,353.96 274.871,363.46 262.5,369C 214.5,369.667 166.5,369.667 118.5,369C 106.974,364.141 98.8077,355.974 94,344.5C 93.3333,308.5 93.3333,272.5 94,236.5C 99.0208,224.98 107.187,216.647 118.5,211.5 Z M 136.5,472.5 C 157.443,473.293 170.943,483.626 177,503.5C 179.151,539.685 162.318,555.519 126.5,551C 104.513,542.202 95.6792,526.035 100,502.5C 105.462,484.194 117.629,474.194 136.5,472.5 Z M 458.5,472.5 C 482.124,473.294 495.957,485.294 500,508.5C 499.476,539.69 483.642,554.19 452.5,552C 435.694,548.527 425.527,538.36 422,521.5C 418.704,493.362 430.871,477.029 458.5,472.5 Z"/></g>
<g><path style="opacity:0.969" fill="#5184c3" d="M 599.5,810.5 C 599.5,811.167 599.5,811.833 599.5,812.5C 463.833,812.5 328.167,812.5 192.5,812.5C 128.335,811.501 64.0022,811.168 -0.5,811.5C -0.5,811.167 -0.5,810.833 -0.5,810.5C 58.9814,767.254 118.315,723.754 177.5,680C 187.071,678.858 196.738,678.358 206.5,678.5C 215.5,678.833 224.5,679.167 233.5,679.5C 225.38,685.781 217.38,692.281 209.5,699C 270.5,699.667 331.5,699.667 392.5,699C 384.62,692.281 376.62,685.781 368.5,679.5C 384.49,678.334 400.49,678.167 416.5,679C 477.206,723.343 538.206,767.176 599.5,810.5 Z M 170.5,725.5 C 256.834,725.333 343.167,725.5 429.5,726C 439.833,733 450.167,740 460.5,747C 354.5,747.667 248.5,747.667 142.5,747C 151.734,739.587 161.067,732.42 170.5,725.5 Z M 100.5,776.5 C 235.5,776.333 370.5,776.5 505.5,777C 517.5,785 529.5,793 541.5,801C 382.5,801.667 223.5,801.667 64.5,801C 76.6779,792.97 88.6779,784.804 100.5,776.5 Z"/></g>
</svg>
